<?xml version="1.0" encoding="UTF-8"?>
<!DOCTYPE svg PUBLIC "-//W3C//DTD SVG 1.1//EN" "http://www.w3.org/Graphics/SVG/1.1/DTD/svg11.dtd">
<svg xmlns="http://www.w3.org/2000/svg" version="1.1" width="512px" height="512px" style="shape-rendering:geometricPrecision; text-rendering:geometricPrecision; image-rendering:optimizeQuality; fill-rule:evenodd; clip-rule:evenodd" xmlns:xlink="http://www.w3.org/1999/xlink">
<g><path style="opacity:0.923" fill="#5e1430" d="M 143.5,48.5 C 143.5,50.8333 143.5,53.1667 143.5,55.5C 142.833,56.5 142.167,57.5 141.5,58.5C 141.167,57.1667 140.833,57.1667 140.5,58.5C 139.508,58.3284 138.842,58.6618 138.5,59.5C 137.5,59.5 136.5,59.5 135.5,59.5C 126.932,58.1855 118.265,58.1855 109.5,59.5C 108.5,59.5 107.5,59.5 106.5,59.5C 106.167,58.1667 105.833,58.1667 105.5,59.5C 103.621,59.6068 103.288,59.1068 104.5,58C 102.934,56.3161 101.934,54.3161 101.5,52C 103.033,49.1375 104.366,46.6375 105.5,44.5C 117.167,45.8333 128.833,45.8333 140.5,44.5C 140.401,46.1495 141.401,47.4829 143.5,48.5 Z"/></g>
<g><path style="opacity:0.923" fill="#5e1330" d="M 211.5,48.5 C 211.263,49.791 211.596,50.791 212.5,51.5C 211.766,52.7079 211.433,54.0413 211.5,55.5C 210.978,57.2191 209.978,58.5525 208.5,59.5C 207.833,58.1667 207.167,58.1667 206.5,59.5C 205.5,59.5 204.5,59.5 203.5,59.5C 194.932,58.1855 186.265,58.1855 177.5,59.5C 176.5,59.5 175.5,59.5 174.5,59.5C 174.167,58.1667 173.833,58.1667 173.5,59.5C 171.621,59.6068 171.288,59.1068 172.5,58C 171.219,56.5913 170.219,55.0913 169.5,53.5C 170.356,49.8422 171.69,46.8422 173.5,44.5C 185.167,45.8333 196.833,45.8333 208.5,44.5C 208.401,46.1495 209.401,47.4829 211.5,48.5 Z"/></g>
<g><path style="opacity:0.008" fill="#5e132f" d="M 143.5,47.5 C 144.833,48.1667 144.833,48.1667 143.5,47.5 Z"/></g>
<g><path style="opacity:0.008" fill="#5e142f" d="M 211.5,47.5 C 212.833,48.1667 212.833,48.1667 211.5,47.5 Z"/></g>
<g><path style="opacity:0.008" fill="#5f1431" d="M 212.5,51.5 C 212.369,50.7611 212.536,50.0944 213,49.5C 213.692,50.4368 213.525,51.1034 212.5,51.5 Z"/></g>
<g><path style="opacity:0.004" fill="#5e1430" d="M 99.5,51.5 C 100.525,51.8966 100.692,52.5632 100,53.5C 99.5357,52.9056 99.369,52.2389 99.5,51.5 Z"/></g>
<g><path style="opacity:0.004" fill="#5e142f" d="M 167.5,51.5 C 168.833,52.1667 168.833,52.1667 167.5,51.5 Z"/></g>
<g><path style="opacity:0.004" fill="#5e1331" d="M 144.5,55.5 C 144.338,53.4727 144.505,51.4727 145,49.5C 145.789,51.7116 145.622,53.7116 144.5,55.5 Z"/></g>
<g><path style="opacity:0.008" fill="#5f132f" d="M 169.5,53.5 C 169.631,54.2389 169.464,54.9056 169,55.5C 168.308,54.5632 168.475,53.8966 169.5,53.5 Z"/></g>
<g><path style="opacity:0.01" fill="#5e1330" d="M 212.5,55.5 C 212.369,54.7611 212.536,54.0944 213,53.5C 213.692,54.4368 213.525,55.1034 212.5,55.5 Z"/></g>
<g><path style="opacity:0.012" fill="#5e1430" d="M 100.5,54.5 C 101.833,55.1667 101.833,55.1667 100.5,54.5 Z"/></g>
<g><path style="opacity:0.004" fill="#5e142f" d="M 143.5,55.5 C 143.833,55.5 144.167,55.5 144.5,55.5C 144.315,56.1701 143.981,56.1701 143.5,55.5 Z"/></g>
<g><path style="opacity:0.004" fill="#5e142f" d="M 211.5,55.5 C 211.833,55.5 212.167,55.5 212.5,55.5C 212.315,56.1701 211.981,56.1701 211.5,55.5 Z"/></g>
<g><path style="opacity:0.004" fill="#5e142f" d="M 140.5,58.5 C 140.833,58.5 141.167,58.5 141.5,58.5C 141.315,59.1701 140.981,59.1701 140.5,58.5 Z"/></g>
<g><path style="opacity:0.012" fill="#5e1330" d="M 105.5,59.5 C 105.833,59.5 106.167,59.5 106.5,59.5C 106.315,60.1701 105.981,60.1701 105.5,59.5 Z"/></g>
<g><path style="opacity:0.012" fill="#5f1431" d="M 138.5,60.5 C 138.5,60.1667 138.5,59.8333 138.5,59.5C 139.167,59.5 139.833,59.5 140.5,59.5C 140.158,60.3382 139.492,60.6716 138.5,60.5 Z"/></g>
<g><path style="opacity:0.012" fill="#5e1430" d="M 173.5,59.5 C 173.833,59.5 174.167,59.5 174.5,59.5C 174.315,60.1701 173.981,60.1701 173.5,59.5 Z"/></g>
<g><path style="opacity:0.008" fill="#5f1331" d="M 206.5,60.5 C 206.5,60.1667 206.5,59.8333 206.5,59.5C 207.167,59.5 207.833,59.5 208.5,59.5C 208.158,60.3382 207.492,60.6716 206.5,60.5 Z"/></g>
<g><path style="opacity:0.993" fill="#5886cf" d="M 135.5,59.5 C 136.341,61.3792 136.675,63.3792 136.5,65.5C 127.5,65.5 118.5,65.5 109.5,65.5C 109.5,63.5 109.5,61.5 109.5,59.5C 118.265,58.1855 126.932,58.1855 135.5,59.5 Z"/></g>
<g><path style="opacity:0.993" fill="#5885cf" d="M 203.5,59.5 C 204.209,60.404 205.209,60.7373 206.5,60.5C 205.032,61.7791 204.365,63.4458 204.5,65.5C 195.5,65.5 186.5,65.5 177.5,65.5C 177.5,63.5 177.5,61.5 177.5,59.5C 186.265,58.1855 194.932,58.1855 203.5,59.5 Z"/></g>
<g><path style="opacity:0.01" fill="#59a2de" d="M 107.5,60.5 C 108.652,65.9846 108.818,71.6513 108,77.5C 107.501,71.8431 107.334,66.1764 107.5,60.5 Z"/></g>
<g><path style="opacity:0.966" fill="#57aae4" d="M 109.5,65.5 C 118.5,65.5 127.5,65.5 136.5,65.5C 136.26,71.227 136.593,76.8936 137.5,82.5C 127.833,82.5 118.167,82.5 108.5,82.5C 109.407,76.8936 109.74,71.227 109.5,65.5 Z"/></g>
<g><path style="opacity:0.011" fill="#58a2df" d="M 175.5,60.5 C 176.652,65.9846 176.818,71.6513 176,77.5C 175.501,71.8431 175.334,66.1764 175.5,60.5 Z"/></g>
<g><path style="opacity:0.96" fill="#57aae4" d="M 177.5,65.5 C 186.5,65.5 195.5,65.5 204.5,65.5C 204.214,71.2586 204.548,76.9252 205.5,82.5C 195.833,82.5 186.167,82.5 176.5,82.5C 177.292,76.8698 177.625,71.2031 177.5,65.5 Z"/></g>
<g><path style="opacity:0.012" fill="#58a2de" d="M 138.5,60.5 C 138.666,66.5092 138.499,72.5092 138,78.5C 137.181,72.3188 137.347,66.3188 138.5,60.5 Z"/></g>
<g><path style="opacity:0.01" fill="#57a9e3" d="M 205.5,64.5 C 206.651,69.6503 206.817,74.9836 206,80.5C 205.501,75.1771 205.334,69.8437 205.5,64.5 Z"/></g>
<g><path style="opacity:0.008" fill="#da6567" d="M 235.5,69.5 C 312.666,68.3344 389.999,68.1677 467.5,69C 390.167,69.5 312.834,69.6667 235.5,69.5 Z"/></g>
<g><path style="opacity:1" fill="#d65d65" d="M 467.5,91.5 C 389.833,91.5 312.167,91.5 234.5,91.5C 234.5,84.5 234.5,77.5 234.5,70.5C 312.167,70.5 389.833,70.5 467.5,70.5C 467.5,77.5 467.5,84.5 467.5,91.5 Z"/></g>
<g><path style="opacity:0.989" fill="#5885d0" d="M 108.5,82.5 C 118.167,82.5 127.833,82.5 137.5,82.5C 137.5,87.8333 137.5,93.1667 137.5,98.5C 132.845,99.1659 128.012,99.4993 123,99.5C 117.784,99.4937 112.951,98.8271 108.5,97.5C 108.5,92.5 108.5,87.5 108.5,82.5 Z"/></g>
<g><path style="opacity:0.989" fill="#5885d0" d="M 176.5,82.5 C 186.167,82.5 195.833,82.5 205.5,82.5C 205.5,87.8333 205.5,93.1667 205.5,98.5C 196.014,99.4938 186.348,99.8271 176.5,99.5C 176.5,98.1667 176.5,96.8333 176.5,95.5C 176.5,91.1667 176.5,86.8333 176.5,82.5 Z"/></g>
<g><path style="opacity:0.012" fill="#5887d1" d="M 138.5,98.5 C 138.334,93.1563 138.501,87.8229 139,82.5C 139.817,88.0164 139.651,93.3497 138.5,98.5 Z"/></g>
<g><path style="opacity:0.012" fill="#5788d1" d="M 206.5,82.5 C 207.65,87.3158 207.816,92.3158 207,97.5C 206.501,92.5111 206.334,87.5111 206.5,82.5 Z"/></g>
<g><path style="opacity:0.016" fill="#588bd3" d="M 174.5,79.5 C 175.648,83.9811 175.815,88.6478 175,93.5C 174.501,88.8452 174.334,84.1785 174.5,79.5 Z"/></g>
<g><path style="opacity:0.012" fill="#5885d0" d="M 107.5,97.5 C 106.35,92.6842 106.184,87.6842 107,82.5C 107.499,87.4889 107.666,92.4889 107.5,97.5 Z"/></g>
<g><path style="opacity:0.995" fill="#e4786e" d="M 234.5,91.5 C 312.167,91.5 389.833,91.5 467.5,91.5C 467.5,185.5 467.5,279.5 467.5,373.5C 442.833,373.5 418.167,373.5 393.5,373.5C 393.826,364.651 393.493,355.984 392.5,347.5C 390.437,344.027 387.937,343.694 385,346.5C 384.5,355.494 384.334,364.494 384.5,373.5C 382.167,373.5 379.833,373.5 377.5,373.5C 377.666,364.494 377.5,355.494 377,346.5C 374.667,343.833 372.333,343.833 370,346.5C 369.5,355.494 369.334,364.494 369.5,373.5C 367.167,373.5 364.833,373.5 362.5,373.5C 362.666,364.827 362.5,356.16 362,347.5C 359.41,343.568 356.91,343.568 354.5,347.5C 353.507,355.984 353.174,364.651 353.5,373.5C 350.833,373.5 348.167,373.5 345.5,373.5C 345.826,364.651 345.493,355.984 344.5,347.5C 342.14,343.543 339.64,343.543 337,347.5C 336.5,356.16 336.334,364.827 336.5,373.5C 334.5,373.5 332.5,373.5 330.5,373.5C 330.826,364.651 330.493,355.984 329.5,347.5C 327.437,344.027 324.937,343.694 322,346.5C 321.5,355.494 321.334,364.494 321.5,373.5C 319.167,373.5 316.833,373.5 314.5,373.5C 314.666,364.494 314.5,355.494 314,346.5C 311.667,343.833 309.333,343.833 307,346.5C 306.5,355.494 306.334,364.494 306.5,373.5C 282.833,373.5 259.167,373.5 235.5,373.5C 235.5,347.167 235.5,320.833 235.5,294.5C 235.5,290.5 235.5,286.5 235.5,282.5C 235.831,254.995 235.498,227.662 234.5,200.5C 234.5,164.167 234.5,127.833 234.5,91.5 Z"/></g>
<g><path style="opacity:0.965" fill="#57a9e4" d="M 107.5,97.5 C 107.833,97.5 108.167,97.5 108.5,97.5C 112.951,98.8271 117.784,99.4937 123,99.5C 128.012,99.4993 132.845,99.1659 137.5,98.5C 137.833,98.5 138.167,98.5 138.5,98.5C 138.344,106.529 138.677,114.529 139.5,122.5C 128.5,122.5 117.5,122.5 106.5,122.5C 107.288,114.191 107.621,105.858 107.5,97.5 Z"/></g>
<g><path style="opacity:0.009" fill="#58a9e4" d="M 173.5,99.5 C 174.651,104.65 174.817,109.984 174,115.5C 173.501,110.177 173.334,104.844 173.5,99.5 Z"/></g>
<g><path style="opacity:0.963" fill="#58a9e4" d="M 176.5,95.5 C 176.5,96.8333 176.5,98.1667 176.5,99.5C 186.348,99.8271 196.014,99.4938 205.5,98.5C 206.26,106.355 206.927,114.355 207.5,122.5C 196.5,122.5 185.5,122.5 174.5,122.5C 174.98,113.338 175.647,104.338 176.5,95.5 Z"/></g>
<g><path style="opacity:0.01" fill="#57aae4" d="M 139.5,100.5 C 140.651,105.65 140.817,110.984 140,116.5C 139.501,111.177 139.334,105.844 139.5,100.5 Z"/></g>
<g><path style="opacity:0.009" fill="#57aae4" d="M 207.5,101.5 C 208.651,106.65 208.817,111.984 208,117.5C 207.501,112.177 207.334,106.844 207.5,101.5 Z"/></g>
<g><path style="opacity:0.012" fill="#58a9e3" d="M 105.5,98.5 C 106.652,103.985 106.818,109.651 106,115.5C 105.501,109.843 105.334,104.176 105.5,98.5 Z"/></g>
<g><path style="opacity:1" fill="#5f1431" d="M 388.5,127.5 C 388.5,133.5 388.5,139.5 388.5,145.5C 380.5,145.5 372.5,145.5 364.5,145.5C 364.334,139.491 364.501,133.491 365,127.5C 370.07,117.711 377.07,116.044 386,122.5C 387.094,124.078 387.928,125.745 388.5,127.5 Z"/></g>
<g><path style="opacity:1" fill="#5f1431" d="M 440.5,145.5 C 432.5,145.5 424.5,145.5 416.5,145.5C 416.5,139.5 416.5,133.5 416.5,127.5C 420.385,118.569 426.718,116.403 435.5,121C 437.617,122.731 439.117,124.898 440,127.5C 440.499,133.491 440.666,139.491 440.5,145.5 Z"/></g>
<g><path style="opacity:1" fill="#5f1330" d="M 270.5,118.5 C 276.421,117.877 281.254,119.877 285,124.5C 286.425,131.385 286.925,138.385 286.5,145.5C 278.5,145.5 270.5,145.5 262.5,145.5C 262.334,139.158 262.5,132.825 263,126.5C 265.028,123.308 267.528,120.641 270.5,118.5 Z"/></g>
<g><path style="opacity:1" fill="#5e1330" d="M 337.5,128.5 C 337.5,134.167 337.5,139.833 337.5,145.5C 329.5,145.5 321.5,145.5 313.5,145.5C 313.334,139.158 313.5,132.825 314,126.5C 320.522,116.746 327.855,116.079 336,124.5C 336.791,125.745 337.291,127.078 337.5,128.5 Z"/></g>
<g><path style="opacity:0.992" fill="#5886d0" d="M 106.5,122.5 C 117.5,122.5 128.5,122.5 139.5,122.5C 139.778,130.17 140.111,137.836 140.5,145.5C 128.833,145.5 117.167,145.5 105.5,145.5C 105.986,137.842 106.32,130.175 106.5,122.5 Z"/></g>
<g><path style="opacity:0.013" fill="#588ed5" d="M 140.5,118.5 C 141.65,123.316 141.816,128.316 141,133.5C 140.501,128.511 140.334,123.511 140.5,118.5 Z"/></g>
<g><path style="opacity:0.013" fill="#588ed5" d="M 173.5,132.5 C 172.35,127.684 172.184,122.684 173,117.5C 173.499,122.489 173.666,127.489 173.5,132.5 Z"/></g>
<g><path style="opacity:0.989" fill="#5886d0" d="M 174.5,122.5 C 185.5,122.5 196.5,122.5 207.5,122.5C 207.523,130.183 207.857,137.85 208.5,145.5C 196.833,145.5 185.167,145.5 173.5,145.5C 173.5,141.167 173.5,136.833 173.5,132.5C 174.479,129.375 174.813,126.042 174.5,122.5 Z"/></g>
<g><path style="opacity:0.016" fill="#588fd5" d="M 104.5,118.5 C 105.648,122.981 105.815,127.648 105,132.5C 104.501,127.845 104.334,123.179 104.5,118.5 Z"/></g>
<g><path style="opacity:0.012" fill="#5887d1" d="M 208.5,121.5 C 209.65,126.316 209.816,131.316 209,136.5C 208.501,131.511 208.334,126.511 208.5,121.5 Z"/></g>
<g><path style="opacity:0.014" fill="#5893d8" d="M 171.5,134.5 C 172.652,139.985 172.818,145.651 172,151.5C 171.501,145.843 171.334,140.176 171.5,134.5 Z"/></g>
<g><path style="opacity:1" fill="#b25257" d="M 337.5,128.5 C 338.49,134.31 338.823,140.31 338.5,146.5C 329.983,146.826 321.65,146.493 313.5,145.5C 321.5,145.5 329.5,145.5 337.5,145.5C 337.5,139.833 337.5,134.167 337.5,128.5 Z"/></g>
<g><path style="opacity:1" fill="#aa4c54" d="M 388.5,127.5 C 389.49,133.645 389.823,139.978 389.5,146.5C 380.983,146.826 372.65,146.493 364.5,145.5C 372.5,145.5 380.5,145.5 388.5,145.5C 388.5,139.5 388.5,133.5 388.5,127.5 Z"/></g>
<g><path style="opacity:1" fill="#ab4d54" d="M 416.5,127.5 C 416.5,133.5 416.5,139.5 416.5,145.5C 424.5,145.5 432.5,145.5 440.5,145.5C 432.35,146.493 424.017,146.826 415.5,146.5C 415.177,139.978 415.51,133.645 416.5,127.5 Z"/></g>
<g><path style="opacity:0.01" fill="#58a0df" d="M 104.5,154.5 C 103.348,149.015 103.182,143.349 104,137.5C 104.499,143.157 104.666,148.824 104.5,154.5 Z"/></g>
<g><path style="opacity:0.969" fill="#58a9e3" d="M 105.5,145.5 C 117.167,145.5 128.833,145.5 140.5,145.5C 140.982,156.516 141.649,167.516 142.5,178.5C 129.5,178.5 116.5,178.5 103.5,178.5C 104.323,170.529 104.656,162.529 104.5,154.5C 105.477,151.713 105.81,148.713 105.5,145.5 Z"/></g>
<g><path style="opacity:0.01" fill="#58a1df" d="M 141.5,138.5 C 142.651,143.65 142.817,148.984 142,154.5C 141.501,149.177 141.334,143.844 141.5,138.5 Z"/></g>
<g><path style="opacity:0.97" fill="#58a9e3" d="M 173.5,145.5 C 185.167,145.5 196.833,145.5 208.5,145.5C 208.888,156.532 209.554,167.532 210.5,178.5C 197.5,178.5 184.5,178.5 171.5,178.5C 172.277,167.509 172.944,156.509 173.5,145.5 Z"/></g>
<g><path style="opacity:0.012" fill="#58a0df" d="M 209.5,138.5 C 210.652,143.985 210.818,149.651 210,155.5C 209.501,149.843 209.334,144.176 209.5,138.5 Z"/></g>
<g><path style="opacity:0.009" fill="#57aae4" d="M 102.5,156.5 C 103.65,161.316 103.816,166.316 103,171.5C 102.501,166.511 102.334,161.511 102.5,156.5 Z"/></g>
<g><path style="opacity:0.009" fill="#57aae4" d="M 170.5,156.5 C 171.65,161.316 171.816,166.316 171,171.5C 170.501,166.511 170.334,161.511 170.5,156.5 Z"/></g>
<g><path style="opacity:0.01" fill="#57a9e4" d="M 142.5,157.5 C 143.65,162.316 143.816,167.316 143,172.5C 142.501,167.511 142.334,162.511 142.5,157.5 Z"/></g>
<g><path style="opacity:0.01" fill="#57aae4" d="M 210.5,157.5 C 211.651,162.65 211.817,167.984 211,173.5C 210.501,168.177 210.334,162.844 210.5,157.5 Z"/></g>
<g><path style="opacity:1" fill="#5f1431" d="M 270.5,165.5 C 276.584,164.689 281.417,166.689 285,171.5C 286.425,178.385 286.925,185.385 286.5,192.5C 278.5,192.5 270.5,192.5 262.5,192.5C 262.334,185.825 262.5,179.158 263,172.5C 265.015,169.588 267.515,167.255 270.5,165.5 Z"/></g>
<g><path style="opacity:1" fill="#5f1431" d="M 321.5,165.5 C 328.205,164.67 333.372,167.004 337,172.5C 337.5,179.158 337.666,185.825 337.5,192.5C 329.5,192.5 321.5,192.5 313.5,192.5C 313.334,186.158 313.5,179.825 314,173.5C 316.028,170.308 318.528,167.641 321.5,165.5 Z"/></g>
<g><path style="opacity:1" fill="#601531" d="M 372.5,165.5 C 380.274,164.468 385.774,167.468 389,174.5C 389.499,180.491 389.666,186.491 389.5,192.5C 381.167,192.5 372.833,192.5 364.5,192.5C 364.334,186.158 364.5,179.825 365,173.5C 367.028,170.308 369.528,167.641 372.5,165.5 Z"/></g>
<g><path style="opacity:1" fill="#611531" d="M 423.5,165.5 C 429.901,164.465 435.068,166.465 439,171.5C 440.425,178.385 440.925,185.385 440.5,192.5C 432.167,192.5 423.833,192.5 415.5,192.5C 415.334,186.491 415.501,180.491 416,174.5C 417.642,170.7 420.142,167.7 423.5,165.5 Z"/></g>
<g><path style="opacity:0.993" fill="#5785d0" d="M 103.5,178.5 C 116.5,178.5 129.5,178.5 142.5,178.5C 142.629,185.845 142.962,193.178 143.5,200.5C 129.833,200.5 116.167,200.5 102.5,200.5C 103.187,193.187 103.521,185.854 103.5,178.5 Z"/></g>
<g><path style="opacity:0.011" fill="#588dd4" d="M 143.5,175.5 C 144.648,179.981 144.815,184.648 144,189.5C 143.501,184.845 143.334,180.179 143.5,175.5 Z"/></g>
<g><path style="opacity:0.013" fill="#588dd4" d="M 169.5,174.5 C 170.648,178.981 170.815,183.648 170,188.5C 169.501,183.845 169.334,179.179 169.5,174.5 Z"/></g>
<g><path style="opacity:0.993" fill="#5785d0" d="M 171.5,178.5 C 184.5,178.5 197.5,178.5 210.5,178.5C 210.179,183.695 210.513,188.695 211.5,193.5C 211.5,195.833 211.5,198.167 211.5,200.5C 197.833,200.5 184.167,200.5 170.5,200.5C 170.833,193.167 171.167,185.833 171.5,178.5 Z"/></g>
<g><path style="opacity:0.016" fill="#5888d2" d="M 101.5,175.5 C 102.647,179.646 102.814,183.98 102,188.5C 101.501,184.179 101.334,179.846 101.5,175.5 Z"/></g>
<g><path style="opacity:0.012" fill="#5886d0" d="M 211.5,193.5 C 211.334,188.156 211.501,182.823 212,177.5C 212.817,183.016 212.651,188.35 211.5,193.5 Z"/></g>
<g><path style="opacity:0.986" fill="#d55d65" d="M 170.5,200.5 C 184.167,200.5 197.833,200.5 211.5,200.5C 212.309,198.708 212.809,196.708 213,194.5C 213.495,196.473 213.662,198.473 213.5,200.5C 216.5,200.5 219.5,200.5 222.5,200.5C 222.5,227.833 222.5,255.167 222.5,282.5C 218.167,282.5 213.833,282.5 209.5,282.5C 209.667,264.164 209.5,245.83 209,227.5C 204.635,218.934 198.135,216.767 189.5,221C 187.877,223.08 186.377,225.246 185,227.5C 184.5,245.83 184.333,264.164 184.5,282.5C 177.5,282.5 170.5,282.5 163.5,282.5C 163.667,264.164 163.5,245.83 163,227.5C 159.397,219.745 153.564,217.245 145.5,220C 143,221.167 141.167,223 140,225.5C 139.5,244.497 139.333,263.497 139.5,282.5C 132.167,282.5 124.833,282.5 117.5,282.5C 117.83,263.992 117.497,245.659 116.5,227.5C 114.778,221.624 110.778,218.624 104.5,218.5C 98.4424,219.34 94.7758,222.673 93.5,228.5C 92.5032,246.326 92.1699,264.326 92.5,282.5C 84.747,282.799 77.0804,282.466 69.5,281.5C 69.5,254.5 69.5,227.5 69.5,200.5C 79.8333,200.5 90.1667,200.5 100.5,200.5C 100.338,198.473 100.505,196.473 101,194.5C 101.191,196.708 101.691,198.708 102.5,200.5C 116.167,200.5 129.833,200.5 143.5,200.5C 144.302,199.048 144.802,197.382 145,195.5C 145.494,197.134 145.66,198.801 145.5,200.5C 153.167,200.5 160.833,200.5 168.5,200.5C 168.335,197.15 168.502,193.817 169,190.5C 169.179,194.025 169.679,197.359 170.5,200.5 Z"/></g>
<g><path style="opacity:0.997" fill="#b64b57" d="M 234.5,200.5 C 235.498,227.662 235.831,254.995 235.5,282.5C 231.167,282.5 226.833,282.5 222.5,282.5C 222.5,255.167 222.5,227.833 222.5,200.5C 225.833,200.5 229.167,200.5 232.5,200.5C 232.333,157.499 232.5,114.499 233,71.5C 233.167,114.669 233.667,157.669 234.5,200.5 Z"/></g>
<g><path style="opacity:1" fill="#601531" d="M 424.5,216.5 C 431.424,215.878 436.591,218.545 440,224.5C 440.5,230.825 440.666,237.158 440.5,243.5C 432.167,243.5 423.833,243.5 415.5,243.5C 415.334,237.491 415.501,231.491 416,225.5C 417.688,221.315 420.521,218.315 424.5,216.5 Z"/></g>
<g><path style="opacity:1" fill="#5f1430" d="M 270.5,216.5 C 276.544,215.679 281.377,217.679 285,222.5C 286.425,229.385 286.925,236.385 286.5,243.5C 278.5,243.5 270.5,243.5 262.5,243.5C 262.334,237.158 262.5,230.825 263,224.5C 265.028,221.308 267.528,218.641 270.5,216.5 Z"/></g>
<g><path style="opacity:1" fill="#5f1431" d="M 321.5,216.5 C 328.205,215.67 333.372,218.004 337,223.5C 337.5,230.158 337.666,236.825 337.5,243.5C 329.5,243.5 321.5,243.5 313.5,243.5C 313.334,237.158 313.5,230.825 314,224.5C 316.028,221.308 318.528,218.641 321.5,216.5 Z"/></g>
<g><path style="opacity:1" fill="#601531" d="M 373.5,216.5 C 380.906,215.782 386.073,218.782 389,225.5C 389.499,231.491 389.666,237.491 389.5,243.5C 381.167,243.5 372.833,243.5 364.5,243.5C 364.334,237.491 364.501,231.491 365,225.5C 366.688,221.315 369.521,218.315 373.5,216.5 Z"/></g>
<g><path style="opacity:1" fill="#5e1330" d="M 116.5,227.5 C 116.5,245.5 116.5,263.5 116.5,281.5C 108.833,281.5 101.167,281.5 93.5,281.5C 93.5,263.833 93.5,246.167 93.5,228.5C 94.7758,222.673 98.4424,219.34 104.5,218.5C 110.778,218.624 114.778,221.624 116.5,227.5 Z"/></g>
<g><path style="opacity:1" fill="#601531" d="M 163.5,282.5 C 155.5,282.5 147.5,282.5 139.5,282.5C 139.333,263.497 139.5,244.497 140,225.5C 141.167,223 143,221.167 145.5,220C 153.564,217.245 159.397,219.745 163,227.5C 163.5,245.83 163.667,264.164 163.5,282.5 Z"/></g>
<g><path style="opacity:1" fill="#621632" d="M 209.5,282.5 C 201.167,282.5 192.833,282.5 184.5,282.5C 184.333,264.164 184.5,245.83 185,227.5C 186.377,225.246 187.877,223.08 189.5,221C 198.135,216.767 204.635,218.934 209,227.5C 209.5,245.83 209.667,264.164 209.5,282.5 Z"/></g>
<g><path style="opacity:1" fill="#8a2e44" d="M 116.5,227.5 C 117.497,245.659 117.83,263.992 117.5,282.5C 109.167,282.5 100.833,282.5 92.5,282.5C 92.1699,264.326 92.5032,246.326 93.5,228.5C 93.5,246.167 93.5,263.833 93.5,281.5C 101.167,281.5 108.833,281.5 116.5,281.5C 116.5,263.5 116.5,245.5 116.5,227.5 Z"/></g>
<g><path style="opacity:1" fill="#5f1431" d="M 270.5,263.5 C 277.709,262.497 282.875,265.163 286,271.5C 286.5,277.825 286.666,284.158 286.5,290.5C 278.5,290.5 270.5,290.5 262.5,290.5C 262.334,283.825 262.5,277.158 263,270.5C 264.742,267.254 267.242,264.921 270.5,263.5 Z"/></g>
<g><path style="opacity:1" fill="#5f1431" d="M 321.5,263.5 C 328.265,262.469 333.432,264.802 337,270.5C 337.5,277.158 337.666,283.825 337.5,290.5C 329.5,290.5 321.5,290.5 313.5,290.5C 313.334,284.158 313.5,277.825 314,271.5C 316.028,268.308 318.528,265.641 321.5,263.5 Z"/></g>
<g><path style="opacity:1" fill="#601531" d="M 372.5,263.5 C 380.493,262.097 385.993,265.097 389,272.5C 389.499,278.491 389.666,284.491 389.5,290.5C 381.167,290.5 372.833,290.5 364.5,290.5C 364.334,284.158 364.5,277.825 365,271.5C 367.028,268.308 369.528,265.641 372.5,263.5 Z"/></g>
<g><path style="opacity:1" fill="#601531" d="M 423.5,263.5 C 429.901,262.465 435.068,264.465 439,269.5C 440.425,276.385 440.925,283.385 440.5,290.5C 432.167,290.5 423.833,290.5 415.5,290.5C 415.334,284.491 415.501,278.491 416,272.5C 417.642,268.7 420.142,265.7 423.5,263.5 Z"/></g>
<g><path style="opacity:0.99" fill="#e4776e" d="M 69.5,281.5 C 77.0804,282.466 84.747,282.799 92.5,282.5C 100.833,282.5 109.167,282.5 117.5,282.5C 124.833,282.5 132.167,282.5 139.5,282.5C 147.5,282.5 155.5,282.5 163.5,282.5C 170.5,282.5 177.5,282.5 184.5,282.5C 192.833,282.5 201.167,282.5 209.5,282.5C 213.833,282.5 218.167,282.5 222.5,282.5C 222.5,286.5 222.5,290.5 222.5,294.5C 171.428,294.172 120.428,294.505 69.5,295.5C 69.1667,295.5 68.8333,295.5 68.5,295.5C 68.1667,295.5 67.8333,295.5 67.5,295.5C 65.5,295.5 63.5,295.5 61.5,295.5C 61.5,290.833 61.5,286.167 61.5,281.5C 68.5306,281.481 68.864,280.981 62.5,280C 64.1341,279.506 65.8008,279.34 67.5,279.5C 67.3334,253.498 67.5,227.498 68,201.5C 68.1678,228.336 68.6678,255.003 69.5,281.5 Z"/></g>
<g><path style="opacity:0.012" fill="#e4796e" d="M 59.5,282.5 C 60.6453,286.311 60.8119,290.311 60,294.5C 59.5012,290.514 59.3345,286.514 59.5,282.5 Z"/></g>
<g><path style="opacity:1" fill="#bc5a5b" d="M 222.5,282.5 C 226.833,282.5 231.167,282.5 235.5,282.5C 235.5,286.5 235.5,290.5 235.5,294.5C 231.167,294.5 226.833,294.5 222.5,294.5C 222.5,290.5 222.5,286.5 222.5,282.5 Z"/></g>
<g><path style="opacity:1" fill="#b14755" d="M 222.5,294.5 C 226.833,294.5 231.167,294.5 235.5,294.5C 235.5,320.833 235.5,347.167 235.5,373.5C 235.5,395.5 235.5,417.5 235.5,439.5C 231.167,439.5 226.833,439.5 222.5,439.5C 222.5,391.167 222.5,342.833 222.5,294.5 Z"/></g>
<g><path style="opacity:0.992" fill="#d55d65" d="M 222.5,294.5 C 222.5,342.833 222.5,391.167 222.5,439.5C 218.167,439.5 213.833,439.5 209.5,439.5C 209.5,437.5 209.5,435.5 209.5,433.5C 209.5,429.167 209.5,424.833 209.5,420.5C 209.5,414.833 209.5,409.167 209.5,403.5C 201.016,402.507 192.349,402.174 183.5,402.5C 183.5,388.5 183.5,374.5 183.5,360.5C 170.167,360.5 156.833,360.5 143.5,360.5C 143.5,369.833 143.5,379.167 143.5,388.5C 140.833,388.5 138.167,388.5 135.5,388.5C 130.5,388.5 125.5,388.5 120.5,388.5C 120.5,395.5 120.5,402.5 120.5,409.5C 109.321,409.172 98.3206,409.505 87.5,410.5C 87.5,414.167 87.5,417.833 87.5,421.5C 87.5,424.167 87.5,426.833 87.5,429.5C 87.5,432.833 87.5,436.167 87.5,439.5C 81.5,439.5 75.5,439.5 69.5,439.5C 69.5,426.5 69.5,413.5 69.5,400.5C 70.8333,396.833 70.8333,393.167 69.5,389.5C 69.5,387.5 69.5,385.5 69.5,383.5C 70.8333,379.833 70.8333,376.167 69.5,372.5C 69.5,346.833 69.5,321.167 69.5,295.5C 120.428,294.505 171.428,294.172 222.5,294.5 Z"/></g>
<g><path style="opacity:0.004" fill="#d85e64" d="M 67.5,295.5 C 67.8333,295.5 68.1667,295.5 68.5,295.5C 68.5,320.5 68.5,345.5 68.5,370.5C 68.1667,370.5 67.8333,370.5 67.5,370.5C 67.5,346.167 67.5,321.833 67.5,297.5C 65.4727,297.662 63.4727,297.495 61.5,297C 63.7078,296.809 65.7078,296.309 67.5,295.5 Z"/></g>
<g><path style="opacity:0.969" fill="#621632" d="M 67.5,370.5 C 67.8333,370.5 68.1667,370.5 68.5,370.5C 68.3284,371.492 68.6618,372.158 69.5,372.5C 70.8333,376.167 70.8333,379.833 69.5,383.5C 68.1667,385.5 68.1667,387.5 69.5,389.5C 70.8333,393.167 70.8333,396.833 69.5,400.5C 68.1667,413.5 68.1667,426.5 69.5,439.5C 75.5,439.5 81.5,439.5 87.5,439.5C 98.5,439.5 109.5,439.5 120.5,439.5C 125.5,439.5 130.5,439.5 135.5,439.5C 138.5,439.5 141.5,439.5 144.5,439.5C 166.167,439.5 187.833,439.5 209.5,439.5C 213.833,439.5 218.167,439.5 222.5,439.5C 226.833,439.5 231.167,439.5 235.5,439.5C 259.167,439.5 282.833,439.5 306.5,439.5C 306.5,417.5 306.5,395.5 306.5,373.5C 306.334,364.494 306.5,355.494 307,346.5C 309.333,343.833 311.667,343.833 314,346.5C 314.5,355.494 314.666,364.494 314.5,373.5C 314.5,395.5 314.5,417.5 314.5,439.5C 316.833,439.5 319.167,439.5 321.5,439.5C 321.5,417.5 321.5,395.5 321.5,373.5C 321.334,364.494 321.5,355.494 322,346.5C 324.937,343.694 327.437,344.027 329.5,347.5C 329.5,378.167 329.5,408.833 329.5,439.5C 331.833,439.5 334.167,439.5 336.5,439.5C 336.5,417.5 336.5,395.5 336.5,373.5C 336.334,364.827 336.5,356.16 337,347.5C 339.64,343.543 342.14,343.543 344.5,347.5C 344.5,378.167 344.5,408.833 344.5,439.5C 347.833,439.5 351.167,439.5 354.5,439.5C 354.5,408.833 354.5,378.167 354.5,347.5C 356.91,343.568 359.41,343.568 362,347.5C 362.5,356.16 362.666,364.827 362.5,373.5C 362.5,395.5 362.5,417.5 362.5,439.5C 364.833,439.5 367.167,439.5 369.5,439.5C 369.5,417.5 369.5,395.5 369.5,373.5C 369.334,364.494 369.5,355.494 370,346.5C 372.333,343.833 374.667,343.833 377,346.5C 377.5,355.494 377.666,364.494 377.5,373.5C 377.5,395.5 377.5,417.5 377.5,439.5C 379.833,439.5 382.167,439.5 384.5,439.5C 384.5,417.5 384.5,395.5 384.5,373.5C 384.334,364.494 384.5,355.494 385,346.5C 387.937,343.694 390.437,344.027 392.5,347.5C 392.5,378.167 392.5,408.833 392.5,439.5C 417.5,439.5 442.5,439.5 467.5,439.5C 468.333,317.001 468.833,194.334 469,71.5C 469.5,193.5 469.667,315.5 469.5,437.5C 497.492,437.667 497.492,438.167 469.5,439C 476.492,439.5 483.492,439.666 490.5,439.5C 490.5,448.167 490.5,456.833 490.5,465.5C 333.833,465.5 177.167,465.5 20.5,465.5C 20.5,456.833 20.5,448.167 20.5,439.5C 24.8333,439.5 29.1667,439.5 33.5,439.5C 33.3334,422.163 33.5001,404.83 34,387.5C 35.3957,383.208 37.8957,379.708 41.5,377C 40.1667,376.333 40.1667,375.667 41.5,375C 49.8421,373.092 58.5088,372.092 67.5,372C 47.5111,371.168 47.5111,370.668 67.5,370.5 Z M 52.5,384.5 C 57.3489,385.166 62.3489,385.833 67.5,386.5C 62.3489,387.167 57.3489,387.834 52.5,388.5C 50.3723,389.538 49.3723,390.871 49.5,392.5C 49.6666,408.17 49.4999,423.837 49,439.5C 48.6667,424.167 48.3333,408.833 48,393.5C 47.5001,408.163 47.3334,422.83 47.5,437.5C 46.1779,437.67 45.0113,437.337 44,436.5C 43.3333,422.833 43.3333,409.167 44,395.5C 44.1909,393.292 44.6909,391.292 45.5,389.5C 45.8333,393.5 46.1667,393.5 46.5,389.5C 47.8333,388.833 48.8333,387.833 49.5,386.5C 50.7777,386.218 51.7777,385.551 52.5,384.5 Z M 62.5,402.5 C 64.1667,402.5 65.8333,402.5 67.5,402.5C 67.5,414.167 67.5,425.833 67.5,437.5C 65.8333,437.5 64.1667,437.5 62.5,437.5C 62.5,425.833 62.5,414.167 62.5,402.5 Z"/></g>
<g><path style="opacity:1" fill="#5884ce" d="M 158.5,361.5 C 158.5,372.5 158.5,383.5 158.5,394.5C 158.5,397.167 158.5,399.833 158.5,402.5C 153.637,402.181 148.97,402.514 144.5,403.5C 144.5,409.167 144.5,414.833 144.5,420.5C 166.167,420.5 187.833,420.5 209.5,420.5C 209.5,424.833 209.5,429.167 209.5,433.5C 187.833,433.5 166.167,433.5 144.5,433.5C 144.5,435.5 144.5,437.5 144.5,439.5C 141.5,439.5 138.5,439.5 135.5,439.5C 135.5,422.5 135.5,405.5 135.5,388.5C 138.167,388.5 140.833,388.5 143.5,388.5C 144.493,379.682 144.827,370.682 144.5,361.5C 149.167,361.5 153.833,361.5 158.5,361.5 Z"/></g>
<g><path style="opacity:1" fill="#57a9e3" d="M 158.5,361.5 C 161.833,361.5 165.167,361.5 168.5,361.5C 168.5,372.5 168.5,383.5 168.5,394.5C 165.167,394.5 161.833,394.5 158.5,394.5C 158.5,383.5 158.5,372.5 158.5,361.5 Z"/></g>
<g><path style="opacity:1" fill="#5781cb" d="M 168.5,361.5 C 173.167,361.5 177.833,361.5 182.5,361.5C 182.5,375.167 182.5,388.833 182.5,402.5C 177.833,402.5 173.167,402.5 168.5,402.5C 168.5,399.833 168.5,397.167 168.5,394.5C 168.5,383.5 168.5,372.5 168.5,361.5 Z"/></g>
<g><path style="opacity:1" fill="#8775a6" d="M 183.5,402.5 C 183.167,402.5 182.833,402.5 182.5,402.5C 182.5,388.833 182.5,375.167 182.5,361.5C 177.833,361.5 173.167,361.5 168.5,361.5C 165.167,361.5 161.833,361.5 158.5,361.5C 153.833,361.5 149.167,361.5 144.5,361.5C 144.827,370.682 144.493,379.682 143.5,388.5C 143.5,379.167 143.5,369.833 143.5,360.5C 156.833,360.5 170.167,360.5 183.5,360.5C 183.5,374.5 183.5,388.5 183.5,402.5 Z"/></g>
<g><path style="opacity:1" fill="#d65d64" d="M 235.5,373.5 C 259.167,373.5 282.833,373.5 306.5,373.5C 306.5,395.5 306.5,417.5 306.5,439.5C 282.833,439.5 259.167,439.5 235.5,439.5C 235.5,417.5 235.5,395.5 235.5,373.5 Z"/></g>
<g><path style="opacity:1" fill="#d55c64" d="M 314.5,373.5 C 316.833,373.5 319.167,373.5 321.5,373.5C 321.5,395.5 321.5,417.5 321.5,439.5C 319.167,439.5 316.833,439.5 314.5,439.5C 314.5,417.5 314.5,395.5 314.5,373.5 Z"/></g>
<g><path style="opacity:1" fill="#d55c64" d="M 329.5,347.5 C 330.493,355.984 330.826,364.651 330.5,373.5C 332.5,373.5 334.5,373.5 336.5,373.5C 336.5,395.5 336.5,417.5 336.5,439.5C 334.167,439.5 331.833,439.5 329.5,439.5C 329.5,408.833 329.5,378.167 329.5,347.5 Z"/></g>
<g><path style="opacity:1" fill="#cb5660" d="M 344.5,347.5 C 345.493,355.984 345.826,364.651 345.5,373.5C 348.167,373.5 350.833,373.5 353.5,373.5C 353.174,364.651 353.507,355.984 354.5,347.5C 354.5,378.167 354.5,408.833 354.5,439.5C 351.167,439.5 347.833,439.5 344.5,439.5C 344.5,408.833 344.5,378.167 344.5,347.5 Z"/></g>
<g><path style="opacity:1" fill="#d55c64" d="M 362.5,373.5 C 364.833,373.5 367.167,373.5 369.5,373.5C 369.5,395.5 369.5,417.5 369.5,439.5C 367.167,439.5 364.833,439.5 362.5,439.5C 362.5,417.5 362.5,395.5 362.5,373.5 Z"/></g>
<g><path style="opacity:1" fill="#d55c64" d="M 377.5,373.5 C 379.833,373.5 382.167,373.5 384.5,373.5C 384.5,395.5 384.5,417.5 384.5,439.5C 382.167,439.5 379.833,439.5 377.5,439.5C 377.5,417.5 377.5,395.5 377.5,373.5 Z"/></g>
<g><path style="opacity:1" fill="#d55d64" d="M 392.5,347.5 C 393.493,355.984 393.826,364.651 393.5,373.5C 418.167,373.5 442.833,373.5 467.5,373.5C 467.5,395.5 467.5,417.5 467.5,439.5C 442.5,439.5 417.5,439.5 392.5,439.5C 392.5,408.833 392.5,378.167 392.5,347.5 Z"/></g>
<g><path style="opacity:0.008" fill="#5f1330" d="M 31.5,388.5 C 32.6129,389.946 32.7796,391.613 32,393.5C 31.5065,391.866 31.3398,390.199 31.5,388.5 Z"/></g>
<g><path style="opacity:1" fill="#5aa7e1" d="M 135.5,388.5 C 135.5,405.5 135.5,422.5 135.5,439.5C 130.5,439.5 125.5,439.5 120.5,439.5C 120.5,436.167 120.5,432.833 120.5,429.5C 109.5,429.5 98.5,429.5 87.5,429.5C 87.5,426.833 87.5,424.167 87.5,421.5C 96.5,421.5 105.5,421.5 114.5,421.5C 116.5,421.5 118.5,421.5 120.5,421.5C 120.5,417.5 120.5,413.5 120.5,409.5C 120.5,402.5 120.5,395.5 120.5,388.5C 125.5,388.5 130.5,388.5 135.5,388.5 Z"/></g>
<g><path style="opacity:1" fill="#6391c5" d="M 158.5,394.5 C 161.833,394.5 165.167,394.5 168.5,394.5C 168.5,397.167 168.5,399.833 168.5,402.5C 173.167,402.5 177.833,402.5 182.5,402.5C 182.833,402.5 183.167,402.5 183.5,402.5C 192.349,402.174 201.016,402.507 209.5,403.5C 187.833,403.5 166.167,403.5 144.5,403.5C 148.97,402.514 153.637,402.181 158.5,402.5C 158.5,399.833 158.5,397.167 158.5,394.5 Z"/></g>
<g><path style="opacity:1" fill="#57aae4" d="M 144.5,403.5 C 166.167,403.5 187.833,403.5 209.5,403.5C 209.5,409.167 209.5,414.833 209.5,420.5C 187.833,420.5 166.167,420.5 144.5,420.5C 144.5,414.833 144.5,409.167 144.5,403.5 Z"/></g>
<g><path style="opacity:1" fill="#5785d0" d="M 87.5,410.5 C 96.5,410.5 105.5,410.5 114.5,410.5C 114.5,414.167 114.5,417.833 114.5,421.5C 105.5,421.5 96.5,421.5 87.5,421.5C 87.5,417.833 87.5,414.167 87.5,410.5 Z"/></g>
<g><path style="opacity:1" fill="#6270ae" d="M 87.5,410.5 C 98.3206,409.505 109.321,409.172 120.5,409.5C 120.5,413.5 120.5,417.5 120.5,421.5C 118.5,421.5 116.5,421.5 114.5,421.5C 114.5,417.833 114.5,414.167 114.5,410.5C 105.5,410.5 96.5,410.5 87.5,410.5 Z"/></g>
<g><path style="opacity:1" fill="#5881cb" d="M 87.5,429.5 C 98.5,429.5 109.5,429.5 120.5,429.5C 120.5,432.833 120.5,436.167 120.5,439.5C 109.5,439.5 98.5,439.5 87.5,439.5C 87.5,436.167 87.5,432.833 87.5,429.5 Z"/></g>
<g><path style="opacity:1" fill="#58aae4" d="M 209.5,433.5 C 209.5,435.5 209.5,437.5 209.5,439.5C 187.833,439.5 166.167,439.5 144.5,439.5C 144.5,437.5 144.5,435.5 144.5,433.5C 166.167,433.5 187.833,433.5 209.5,433.5 Z"/></g>
<g><path style="opacity:0.004" fill="#5d1531" d="M 31.5,436.5 C 32.0431,436.56 32.3764,436.893 32.5,437.5C 28.5411,438.66 24.5411,438.827 20.5,438C 24.3563,437.823 28.023,437.323 31.5,436.5 Z"/></g>
<g><path style="opacity:0.011" fill="#5f1331" d="M 18.5,439.5 C 19.6569,447.99 19.8236,456.657 19,465.5C 18.5002,456.84 18.3336,448.173 18.5,439.5 Z"/></g>
<g><path style="opacity:0.011" fill="#5f1331" d="M 491.5,439.5 C 492.657,447.99 492.824,456.657 492,465.5C 491.5,456.84 491.334,448.173 491.5,439.5 Z"/></g>
<g><path style="opacity:0.016" fill="#5d1430" d="M 20.5,467.5 C 176.999,466.334 333.666,466.167 490.5,467C 333.834,467.5 177.167,467.667 20.5,467.5 Z"/></g>
</svg>
